Coordinates
version=1
nRows=4
nColumns=114
inDegrees=yes

Units are S.I. units (second, meters, Newtons, ...)
If the header above contains a line with 'inDegrees', this indicates whether rotational values are in degrees (yes) or radians (no).

endheader 
time	pelvis_tilt	pelvis_list	pelvis_rotation	pelvis_tx	pelvis_ty	pelvis_tz	hip_flexion_l	hip_adduction_l	hip_rotation_l	hip_flexion_r	hip_adduction_r	hip_rotation_r	knee_angle_l	knee_angle_r	ankle_angle_l	ankle_angle_r	subtalar_angle_l	subtalar_angle_r	mtp_angle_l	mtp_angle_r	lumbar_extension	lumbar_bending	lumbar_rotation	arm_flex_l	arm_add_l	arm_rot_l	arm_flex_r	arm_add_r	arm_rot_r	elbow_flex_l	elbow_flex_r	pro_sup_l	pro_sup_r	addbrev_l/activation	addlong_l/activation	addmagDist_l/activation	addmagIsch_l/activation	addmagMid_l/activation	addmagProx_l/activation	bflh_l/activation	bfsh_l/activation	edl_l/activation	ehl_l/activation	fdl_l/activation	fhl_l/activation	gaslat_l/activation	gasmed_l/activation	glmax1_l/activation	glmax2_l/activation	glmax3_l/activation	glmed1_l/activation	glmed2_l/activation	glmed3_l/activation	glmin1_l/activation	glmin2_l/activation	glmin3_l/activation	grac_l/activation	iliacus_l/activation	perbrev_l/activation	perlong_l/activation	piri_l/activation	psoas_l/activation	recfem_l/activation	sart_l/activation	semimem_l/activation	semiten_l/activation	soleus_l/activation	tfl_l/activation	tibant_l/activation	tibpost_l/activation	vasint_l/activation	vaslat_l/activation	vasmed_l/activation	addbrev_r/activation	addlong_r/activation	addmagDist_r/activation	addmagIsch_r/activation	addmagMid_r/activation	addmagProx_r/activation	bflh_r/activation	bfsh_r/activation	edl_r/activation	ehl_r/activation	fdl_r/activation	fhl_r/activation	gaslat_r/activation	gasmed_r/activation	glmax1_r/activation	glmax2_r/activation	glmax3_r/activation	glmed1_r/activation	glmed2_r/activation	glmed3_r/activation	glmin1_r/activation	glmin2_r/activation	glmin3_r/activation	grac_r/activation	iliacus_r/activation	perbrev_r/activation	perlong_r/activation	piri_r/activation	psoas_r/activation	recfem_r/activation	sart_r/activation	semimem_r/activation	semiten_r/activation	soleus_r/activation	tfl_r/activation	tibant_r/activation	tibpost_r/activation	vasint_r/activation	vaslat_r/activation	vasmed_r/activation	
          1.31000000	        -16.55689261	         -3.27507197	        -44.86497319	          1.32672934	          0.90425592	          0.29990071	         28.77796073	         -9.28686710	         -5.59134874	         55.64300924	         -4.87437230	          4.27997885	         38.77424671	        126.64036788	         25.90779943	         12.75846989	        -14.32562351	         -5.70787313	         -4.59445009	         -0.68846436	        -12.08053149	          3.16688479	          4.10301957	         10.32014203	        -17.06475562	         20.60483760	         -3.14041425	        -17.49646272	         16.74720554	         26.30746350	         34.74251697	         92.53115338	         69.99134401	          0.07473773	          0.10254789	          0.06378221	          0.12191307	          0.05728137	          0.04044505	          0.01392165	          0.08466261	          0.06821326	          0.09097241	          0.09126895	          0.12709812	          0.07543405	          0.02607558	          0.07847204	          0.08824525	          0.01528966	          0.64485454	          0.16786855	          0.12858519	          0.25774704	          0.15722344	          0.07751975	          0.06796359	          0.19745353	          0.01633903	          0.01228548	          0.05464363	          0.08572341	          0.08490762	          0.04855019	          0.14895106	          0.08744301	          0.06563827	          0.11455499	          0.22561440	          0.29794154	          0.07459565	          0.15005375	          0.09146491	          0.01080719	          0.01067391	          0.01055280	          0.01057892	          0.01060422	          0.01190580	          0.13017701	          0.29621849	          0.09380971	          0.06656399	          0.04335861	          0.03410774	          0.13493445	          0.19860692	          0.03872042	          0.06206479	          0.01073571	          0.01118757	          0.01244305	          0.02289371	          0.01367426	          0.01858522	          0.02996243	          0.01861473	          0.15636495	          0.05065813	          0.04483515	          0.49072091	          0.64498926	          0.02623916	          0.98231318	          0.01051565	          0.01116862	          0.01152340	          0.12628025	          0.13996282	          0.03225647	          0.01051305	          0.01017336	          0.01033004	
          1.32000000	        -16.78115546	         -2.60392475	        -45.18731309	          1.32394180	          0.90198399	          0.29846167	         30.02888766	         -8.80803477	         -4.85588119	         57.03037450	         -5.37863049	          4.57265752	         39.76364581	        127.16967770	         26.74195518	         13.56434054	        -14.11394777	         -4.40130869	         -4.09421949	         -0.58558948	        -11.77922580	          2.74529640	          4.40376601	         10.82038491	        -17.08327687	         20.51478691	         -3.39634724	        -17.36300335	         16.04871984	         26.32850669	         35.04692844	         92.33558741	         69.09425413	          0.06271077	          0.08565230	          0.05393248	          0.10219155	          0.04841377	          0.03541189	          0.01720668	          0.07578608	          0.05928052	          0.07800571	          0.09007447	          0.12967490	          0.07665067	          0.04003740	          0.06605294	          0.07387033	          0.01339070	          0.53852068	          0.15741903	          0.10807468	          0.21643121	          0.14130706	          0.07387777	          0.05817600	          0.16493370	          0.01546746	          0.01203666	          0.04806642	          0.07205056	          0.07110070	          0.05698869	          0.13014814	          0.07662627	          0.05620804	          0.09896811	          0.18892174	          0.30007007	          0.06249684	          0.12516500	          0.07646143	          0.01083441	          0.01069807	          0.01055365	          0.01058680	          0.01060679	          0.01196800	          0.13990132	          0.29789892	          0.09109458	          0.06561272	          0.04363850	          0.03385595	          0.14436902	          0.21749955	          0.03302082	          0.05236912	          0.01075666	          0.01097326	          0.01180271	          0.01947298	          0.01317753	          0.01674180	          0.02584432	          0.01655995	          0.13096862	          0.04927126	          0.04238116	          0.48823789	          0.54031881	          0.02253735	          0.98404547	          0.01052349	          0.01111906	          0.01111162	          0.10858254	          0.13223541	          0.03233684	          0.01047611	          0.01016053	          0.01030619	
          1.33000000	        -16.96738512	         -1.98392354	        -45.46793089	          1.32092753	          0.89928016	          0.29670690	         31.37971386	         -8.24756260	         -3.87157791	         58.51859621	         -5.88098304	          4.86548159	         40.98916145	        127.79867145	         27.47173308	         14.42666224	        -13.80925162	         -3.35756418	         -3.64838702	         -0.51005285	        -11.60615784	          2.33385188	          4.66484784	         11.54050782	        -17.15495298	         20.42042553	         -3.24634119	        -17.28737151	         15.41206162	         26.49040123	         35.40360326	         92.37017240	         68.50017381	          0.05255932	          0.07152930	          0.04600293	          0.08604848	          0.04094044	          0.03075780	          0.06812646	          0.06563312	          0.05320264	          0.06969730	          0.10158039	          0.15249498	          0.08525702	          0.04695768	          0.08959478	          0.09388381	          0.02670962	          0.44989497	          0.23617372	          0.15219600	          0.18161736	          0.12470117	          0.10059760	          0.04954988	          0.13774417	          0.01643271	          0.01442345	          0.13228684	          0.06040979	          0.05963307	          0.05042293	          0.11254213	          0.06774930	          0.06279837	          0.08704863	          0.16119317	          0.33226848	          0.05392193	          0.10479876	          0.06502080	          0.01072035	          0.01057106	          0.01057985	          0.01063028	          0.01059538	          0.01181151	          0.19357728	          0.28654597	          0.08315447	          0.06272965	          0.04436906	          0.03574104	          0.15058879	          0.22645171	          0.02958174	          0.05056350	          0.01094318	          0.01077539	          0.01144341	          0.01672781	          0.01256180	          0.01516443	          0.02242593	          0.01505761	          0.10951402	          0.04753198	          0.04026320	          0.49267847	          0.45097983	          0.01932597	          0.98068381	          0.01064196	          0.01125914	          0.01128312	          0.09440139	          0.11809567	          0.03523713	          0.01046780	          0.01015726	          0.01030079	
          1.34000000	        -17.09757946	         -1.48327926	        -45.69269920	          1.31804798	          0.89616753	          0.29495762	         32.67551482	         -7.69369761	         -2.83579168	         59.91638114	         -6.37850094	          5.09701829	         42.34676347	        128.50271495	         28.05591567	         15.21229830	        -13.48270990	         -2.63702424	         -3.26104089	         -0.45776536	        -11.57408498	          1.97884967	          4.83670839	         12.02002374	        -17.31003356	         20.27941086	         -3.07676878	        -17.24076105	         14.91402179	         26.83750402	         35.83373813	         92.46498572	         68.11629056	          0.04407116	          0.05974645	          0.03925254	          0.07236671	          0.03466768	          0.02683900	          0.06040679	          0.05816514	          0.04753509	          0.06546237	          0.10716103	          0.16505303	          0.08250792	          0.04091750	          0.18741698	          0.29658941	          0.03815694	          0.37690510	          0.24837356	          0.24965110	          0.15294152	          0.11568943	          0.12693316	          0.04232888	          0.11510434	          0.01442704	          0.01244843	          0.18714231	          0.05071930	          0.05032618	          0.04624378	          0.09435484	          0.05876337	          0.11635104	          0.07777738	          0.21398236	          0.34476575	          0.04662394	          0.08772180	          0.05540560	          0.01063219	          0.01048604	          0.01057710	          0.01064671	          0.01056568	          0.01162144	          0.21220311	          0.28209991	          0.07622879	          0.05973681	          0.04478828	          0.03790999	          0.16155647	          0.24780103	          0.02933887	          0.21927257	          0.01104461	          0.01065430	          0.01122970	          0.01462648	          0.01208038	          0.01396514	          0.01966931	          0.01393918	          0.09158631	          0.04584725	          0.03881579	          0.50240800	          0.37741345	          0.01668247	          0.98871191	          0.01063971	          0.01125217	          0.01213921	          0.08480247	          0.10535610	          0.03735143	          0.01044763	          0.01014962	          0.01028743	
